<mxfile host="app.diagrams.net" agent="Mozilla/5.0 (Windows NT 10.0; Win64; x64) AppleWebKit/537.36 (KHTML, like Gecko) Chrome/135.0.0.0 Safari/537.36" version="26.2.14">
  <diagram name="Page-1" id="nh5qx7T-VSw2V4AqfD7a">
    <mxGraphModel dx="1773" dy="623" grid="1" gridSize="10" guides="1" tooltips="1" connect="1" arrows="1" fold="1" page="1" pageScale="1" pageWidth="827" pageHeight="1169" math="0" shadow="0">
      <root>
        <mxCell id="0" />
        <mxCell id="1" parent="0" />
        <mxCell id="RIzMPogf7u3G5d_BGY1v-4" style="edgeStyle=orthogonalEdgeStyle;rounded=0;orthogonalLoop=1;jettySize=auto;html=1;entryX=0;entryY=0.5;entryDx=0;entryDy=0;startArrow=classic;startFill=1;" edge="1" parent="1" source="RIzMPogf7u3G5d_BGY1v-1" target="RIzMPogf7u3G5d_BGY1v-2">
          <mxGeometry relative="1" as="geometry" />
        </mxCell>
        <mxCell id="RIzMPogf7u3G5d_BGY1v-13" style="edgeStyle=orthogonalEdgeStyle;rounded=0;orthogonalLoop=1;jettySize=auto;html=1;endArrow=none;startFill=0;" edge="1" parent="1" source="RIzMPogf7u3G5d_BGY1v-1" target="RIzMPogf7u3G5d_BGY1v-11">
          <mxGeometry relative="1" as="geometry" />
        </mxCell>
        <mxCell id="RIzMPogf7u3G5d_BGY1v-14" style="edgeStyle=orthogonalEdgeStyle;rounded=0;orthogonalLoop=1;jettySize=auto;html=1;entryX=1;entryY=0;entryDx=0;entryDy=0;endArrow=none;startFill=0;" edge="1" parent="1" source="RIzMPogf7u3G5d_BGY1v-1" target="RIzMPogf7u3G5d_BGY1v-9">
          <mxGeometry relative="1" as="geometry">
            <Array as="points">
              <mxPoint x="40" y="390" />
              <mxPoint x="-50" y="390" />
              <mxPoint x="-50" y="432" />
            </Array>
          </mxGeometry>
        </mxCell>
        <mxCell id="RIzMPogf7u3G5d_BGY1v-15" style="edgeStyle=orthogonalEdgeStyle;rounded=0;orthogonalLoop=1;jettySize=auto;html=1;entryX=0;entryY=0;entryDx=0;entryDy=0;endArrow=none;startFill=0;" edge="1" parent="1" source="RIzMPogf7u3G5d_BGY1v-1" target="RIzMPogf7u3G5d_BGY1v-10">
          <mxGeometry relative="1" as="geometry">
            <Array as="points">
              <mxPoint x="40" y="390" />
              <mxPoint x="130" y="390" />
              <mxPoint x="130" y="432" />
            </Array>
          </mxGeometry>
        </mxCell>
        <mxCell id="RIzMPogf7u3G5d_BGY1v-1" value="Client Angular" style="rounded=1;whiteSpace=wrap;html=1;fillColor=#fff2cc;strokeColor=#d6b656;glass=0;shadow=1;gradientColor=none;labelBackgroundColor=none;fontStyle=1;strokeWidth=2;perimeterSpacing=0;" vertex="1" parent="1">
          <mxGeometry x="-20" y="280" width="120" height="80" as="geometry" />
        </mxCell>
        <mxCell id="RIzMPogf7u3G5d_BGY1v-8" style="edgeStyle=orthogonalEdgeStyle;rounded=0;orthogonalLoop=1;jettySize=auto;html=1;entryX=0;entryY=0.5;entryDx=0;entryDy=0;startArrow=classic;startFill=1;" edge="1" parent="1" source="RIzMPogf7u3G5d_BGY1v-2" target="RIzMPogf7u3G5d_BGY1v-3">
          <mxGeometry relative="1" as="geometry" />
        </mxCell>
        <mxCell id="RIzMPogf7u3G5d_BGY1v-21" style="edgeStyle=orthogonalEdgeStyle;rounded=0;orthogonalLoop=1;jettySize=auto;html=1;entryX=0;entryY=0.5;entryDx=0;entryDy=0;" edge="1" parent="1" source="RIzMPogf7u3G5d_BGY1v-2" target="RIzMPogf7u3G5d_BGY1v-20">
          <mxGeometry relative="1" as="geometry" />
        </mxCell>
        <mxCell id="RIzMPogf7u3G5d_BGY1v-24" style="edgeStyle=orthogonalEdgeStyle;rounded=0;orthogonalLoop=1;jettySize=auto;html=1;endArrow=none;startFill=0;" edge="1" parent="1" source="RIzMPogf7u3G5d_BGY1v-2" target="RIzMPogf7u3G5d_BGY1v-16">
          <mxGeometry relative="1" as="geometry" />
        </mxCell>
        <mxCell id="RIzMPogf7u3G5d_BGY1v-25" style="edgeStyle=orthogonalEdgeStyle;rounded=0;orthogonalLoop=1;jettySize=auto;html=1;entryX=0.5;entryY=0;entryDx=0;entryDy=0;endArrow=none;startFill=0;" edge="1" parent="1" source="RIzMPogf7u3G5d_BGY1v-2" target="RIzMPogf7u3G5d_BGY1v-17">
          <mxGeometry relative="1" as="geometry" />
        </mxCell>
        <mxCell id="RIzMPogf7u3G5d_BGY1v-2" value="Serveur Node.js&lt;span style=&quot;color: rgba(0, 0, 0, 0); font-family: monospace; font-size: 0px; text-align: start; text-wrap-mode: nowrap;&quot;&gt;%3CmxGraphModel%3E%3Croot%3E%3CmxCell%20id%3D%220%22%2F%3E%3CmxCell%20id%3D%221%22%20parent%3D%220%22%2F%3E%3CmxCell%20id%3D%222%22%20value%3D%22Client%20Angular%22%20style%3D%22rounded%3D1%3BwhiteSpace%3Dwrap%3Bhtml%3D1%3B%22%20vertex%3D%221%22%20parent%3D%221%22%3E%3CmxGeometry%20x%3D%2290%22%20y%3D%22150%22%20width%3D%22100%22%20height%3D%2270%22%20as%3D%22geometry%22%2F%3E%3C%2FmxCell%3E%3C%2Froot%3E%3C%2FmxGraphModel%3E&lt;/span&gt;" style="rounded=1;whiteSpace=wrap;html=1;fillColor=#ffe6cc;strokeColor=#d79b00;shadow=1;fontStyle=1;strokeWidth=2;" vertex="1" parent="1">
          <mxGeometry x="294" y="280" width="120" height="80" as="geometry" />
        </mxCell>
        <mxCell id="RIzMPogf7u3G5d_BGY1v-22" style="edgeStyle=orthogonalEdgeStyle;rounded=0;orthogonalLoop=1;jettySize=auto;html=1;endArrow=none;startFill=0;" edge="1" parent="1" source="RIzMPogf7u3G5d_BGY1v-3" target="RIzMPogf7u3G5d_BGY1v-18">
          <mxGeometry relative="1" as="geometry" />
        </mxCell>
        <mxCell id="RIzMPogf7u3G5d_BGY1v-3" value="&lt;div&gt;MariaDB&lt;/div&gt;" style="rounded=1;whiteSpace=wrap;html=1;fillColor=#f8cecc;strokeColor=#b85450;shadow=1;fontStyle=1;strokeWidth=2;" vertex="1" parent="1">
          <mxGeometry x="520" y="230" width="120" height="80" as="geometry" />
        </mxCell>
        <mxCell id="RIzMPogf7u3G5d_BGY1v-6" value="API REST" style="text;html=1;align=center;verticalAlign=middle;resizable=0;points=[];autosize=1;strokeColor=none;fillColor=none;" vertex="1" parent="1">
          <mxGeometry x="160" y="290" width="80" height="30" as="geometry" />
        </mxCell>
        <mxCell id="RIzMPogf7u3G5d_BGY1v-9" value="Composants&lt;div&gt;(Accueil, Films, Réservation...)&lt;/div&gt;" style="ellipse;whiteSpace=wrap;html=1;fillColor=#fff2cc;strokeColor=#d6b656;" vertex="1" parent="1">
          <mxGeometry x="-110" y="420" width="120" height="80" as="geometry" />
        </mxCell>
        <mxCell id="RIzMPogf7u3G5d_BGY1v-10" value="Services&lt;div&gt;(DataService, AuthService...)&lt;/div&gt;" style="ellipse;whiteSpace=wrap;html=1;fillColor=#fff2cc;strokeColor=#d6b656;" vertex="1" parent="1">
          <mxGeometry x="70" y="420" width="120" height="80" as="geometry" />
        </mxCell>
        <mxCell id="RIzMPogf7u3G5d_BGY1v-11" value="Routing" style="ellipse;whiteSpace=wrap;html=1;fillColor=#fff2cc;strokeColor=#d6b656;" vertex="1" parent="1">
          <mxGeometry x="-20" y="490" width="120" height="80" as="geometry" />
        </mxCell>
        <mxCell id="RIzMPogf7u3G5d_BGY1v-16" value="Accès aux BDD" style="ellipse;whiteSpace=wrap;html=1;fillColor=#ffe6cc;strokeColor=#d79b00;" vertex="1" parent="1">
          <mxGeometry x="220" y="420" width="120" height="80" as="geometry" />
        </mxCell>
        <mxCell id="RIzMPogf7u3G5d_BGY1v-17" value="Serveur Express" style="ellipse;whiteSpace=wrap;html=1;fillColor=#ffe6cc;strokeColor=#d79b00;" vertex="1" parent="1">
          <mxGeometry x="370" y="420" width="120" height="80" as="geometry" />
        </mxCell>
        <mxCell id="RIzMPogf7u3G5d_BGY1v-18" value="Films, Séance, Réservation..." style="ellipse;whiteSpace=wrap;html=1;fillColor=#f8cecc;strokeColor=#b85450;" vertex="1" parent="1">
          <mxGeometry x="520" y="120" width="120" height="80" as="geometry" />
        </mxCell>
        <mxCell id="RIzMPogf7u3G5d_BGY1v-19" value="Utilisateurs" style="ellipse;whiteSpace=wrap;html=1;fillColor=#f8cecc;strokeColor=#b85450;" vertex="1" parent="1">
          <mxGeometry x="520" y="440" width="120" height="80" as="geometry" />
        </mxCell>
        <mxCell id="RIzMPogf7u3G5d_BGY1v-28" style="edgeStyle=orthogonalEdgeStyle;rounded=0;orthogonalLoop=1;jettySize=auto;html=1;entryX=0.5;entryY=0;entryDx=0;entryDy=0;endArrow=none;startFill=0;" edge="1" parent="1" source="RIzMPogf7u3G5d_BGY1v-20" target="RIzMPogf7u3G5d_BGY1v-19">
          <mxGeometry relative="1" as="geometry" />
        </mxCell>
        <mxCell id="RIzMPogf7u3G5d_BGY1v-20" value="&lt;div&gt;MongoDB&lt;/div&gt;" style="rounded=1;whiteSpace=wrap;html=1;fillColor=#f8cecc;strokeColor=#b85450;shadow=1;fontStyle=1;strokeWidth=2;" vertex="1" parent="1">
          <mxGeometry x="520" y="330" width="120" height="80" as="geometry" />
        </mxCell>
      </root>
    </mxGraphModel>
  </diagram>
</mxfile>
